<svg width="26" height="27" viewBox="0 0 26 27" fill="none" xmlns="http://www.w3.org/2000/svg">
<path d="M1.09375 0C0.803669 0 0.52547 0.115234 0.320352 0.320352C0.115234 0.52547 0 0.803669 0 1.09375C0 1.38383 0.115234 1.66203 0.320352 1.86715C0.52547 2.07227 0.803669 2.1875 1.09375 2.1875H1.63188C1.86937 2.18791 2.10029 2.26562 2.28972 2.40887C2.47915 2.55213 2.6168 2.75315 2.68188 2.98156L6.15125 15.1222C6.34748 15.8073 6.76143 16.4099 7.33054 16.8389C7.89964 17.2679 8.59294 17.5 9.30562 17.5H19.3003C19.9562 17.5001 20.5971 17.3036 21.1403 16.9359C21.6834 16.5682 22.1039 16.0462 22.3475 15.4372L25.5719 7.37406C25.7044 7.04227 25.7537 6.68307 25.7154 6.32785C25.677 5.97262 25.5523 5.63219 25.352 5.33632C25.1517 5.04044 24.882 4.79812 24.5665 4.63054C24.251 4.46296 23.8992 4.37523 23.5419 4.375H5.355L4.78406 2.38C4.58834 1.69482 4.17488 1.09197 3.60618 0.662586C3.03749 0.233203 2.34447 0.000622055 1.63188 0H1.09375ZM8.25563 14.5184L5.98063 6.5625H23.5419L20.3153 14.6256C20.2341 14.8284 20.094 15.0022 19.9131 15.1246C19.7322 15.247 19.5187 15.3124 19.3003 15.3125H9.30562C9.06813 15.3121 8.83721 15.2344 8.64778 15.0911C8.45835 14.9479 8.3207 14.7468 8.25563 14.5184ZM9.84375 26.25C10.2746 26.25 10.7013 26.1651 11.0994 26.0002C11.4975 25.8353 11.8593 25.5936 12.1639 25.2889C12.4686 24.9843 12.7103 24.6225 12.8752 24.2244C13.0401 23.8263 13.125 23.3997 13.125 22.9688C13.125 22.5378 13.0401 22.1112 12.8752 21.7131C12.7103 21.315 12.4686 20.9532 12.1639 20.6486C11.8593 20.3439 11.4975 20.1022 11.0994 19.9373C10.7013 19.7724 10.2746 19.6875 9.84375 19.6875C8.97351 19.6875 8.13891 20.0332 7.52356 20.6486C6.9082 21.2639 6.5625 22.0985 6.5625 22.9688C6.5625 23.839 6.9082 24.6736 7.52356 25.2889C8.13891 25.9043 8.97351 26.25 9.84375 26.25ZM9.84375 24.0625C9.55367 24.0625 9.27547 23.9473 9.07035 23.7421C8.86523 23.537 8.75 23.2588 8.75 22.9688C8.75 22.6787 8.86523 22.4005 9.07035 22.1954C9.27547 21.9902 9.55367 21.875 9.84375 21.875C10.1338 21.875 10.412 21.9902 10.6171 22.1954C10.8223 22.4005 10.9375 22.6787 10.9375 22.9688C10.9375 23.2588 10.8223 23.537 10.6171 23.7421C10.412 23.9473 10.1338 24.0625 9.84375 24.0625ZM18.5938 26.25C19.0247 26.25 19.4513 26.1651 19.8494 26.0002C20.2475 25.8353 20.6093 25.5936 20.9139 25.2889C21.2186 24.9843 21.4603 24.6225 21.6252 24.2244C21.7901 23.8263 21.875 23.3997 21.875 22.9688C21.875 22.5378 21.7901 22.1112 21.6252 21.7131C21.4603 21.315 21.2186 20.9532 20.9139 20.6486C20.6093 20.3439 20.2475 20.1022 19.8494 19.9373C19.4513 19.7724 19.0247 19.6875 18.5938 19.6875C17.7235 19.6875 16.8889 20.0332 16.2736 20.6486C15.6582 21.2639 15.3125 22.0985 15.3125 22.9688C15.3125 23.839 15.6582 24.6736 16.2736 25.2889C16.8889 25.9043 17.7235 26.25 18.5938 26.25ZM18.5938 24.0625C18.3037 24.0625 18.0255 23.9473 17.8204 23.7421C17.6152 23.537 17.5 23.2588 17.5 22.9688C17.5 22.6787 17.6152 22.4005 17.8204 22.1954C18.0255 21.9902 18.3037 21.875 18.5938 21.875C18.8838 21.875 19.162 21.9902 19.3671 22.1954C19.5723 22.4005 19.6875 22.6787 19.6875 22.9688C19.6875 23.2588 19.5723 23.537 19.3671 23.7421C19.162 23.9473 18.8838 24.0625 18.5938 24.0625Z" fill="white"/>
</svg>
