<svg width="35" height="35" viewBox="0 0 35 35" fill="none" xmlns="http://www.w3.org/2000/svg">
<g clip-path="url(#clip0_189_35)">
<path d="M34.9992 14.228L34.9992 2.66273C34.9992 1.19492 33.8048 0 32.3376 0H20.5327C19.7917 0 18.67 0 17.9378 0.732813L0.645068 18.0261C0.229443 18.4417 -0.000244141 18.9935 -0.000244141 19.5808C-0.000244141 20.1693 0.228384 20.7216 0.644009 21.1373L13.8647 34.3552C14.2787 34.7714 14.831 35 15.4184 35C16.0057 35 16.5586 34.7713 16.9731 34.3557L34.2664 17.0619C35.008 16.322 35.0036 15.2566 34.9992 14.228V14.228ZM32.72 15.5154L15.4108 32.8082L2.19173 19.5732L19.4659 2.29527C19.6398 2.18753 20.266 2.18753 20.5252 2.18753L21.0174 2.18917L32.3377 2.18753C32.5997 2.18753 32.8118 2.40082 32.8118 2.66277V14.2368C32.814 14.653 32.8163 15.3492 32.72 15.5154ZM26.2504 4.375C23.8343 4.375 21.8754 6.33387 21.8754 8.75C21.8754 11.1661 23.8343 13.125 26.2504 13.125C28.6665 13.125 30.6254 11.1661 30.6254 8.75C30.6254 6.33391 28.6665 4.375 26.2504 4.375ZM26.2504 10.9375C25.0424 10.9375 24.0629 9.95805 24.0629 8.75C24.0629 7.54195 25.0424 6.5625 26.2504 6.5625C27.4585 6.5625 28.4379 7.54195 28.4379 8.75C28.4379 9.95805 27.4585 10.9375 26.2504 10.9375Z" fill="white"/>
</g>
<defs>
<clipPath id="clip0_189_35">
<rect width="35" height="35" fill="white"/>
</clipPath>
</defs>
</svg>
