<svg width="35" height="35" viewBox="0 0 35 35" fill="none" xmlns="http://www.w3.org/2000/svg">
<path d="M9.05489 17.9725H6.41823C5.57385 17.9725 4.88989 18.6579 4.88989 19.5008V29.4612C4.88989 30.3041 5.57531 30.9895 6.41823 30.9895H9.05635C9.90218 30.9895 10.5861 30.3041 10.5861 29.4598V19.5008C10.5858 19.0952 10.4245 18.7063 10.1377 18.4195C9.85084 18.1327 9.46196 17.9714 9.05635 17.971M18.8184 4.01038H16.1818C15.3359 4.01038 14.652 4.69579 14.652 5.54017V29.4583C14.652 30.3041 15.3374 30.9881 16.1832 30.9881H18.8184C19.6643 30.9881 20.3482 30.3027 20.3482 29.4583V5.54163C20.3482 4.69579 19.6628 4.01183 18.817 4.01183M28.582 11.5602H25.9439C25.098 11.5602 24.4141 12.2456 24.4141 13.0914V29.4583C24.4141 30.3041 25.0995 30.9881 25.9439 30.9881H28.5805C28.9861 30.9877 29.375 30.8264 29.6618 30.5396C29.9486 30.2528 30.1099 29.8639 30.1103 29.4583V13.09C30.1103 12.2441 29.4249 11.5602 28.5791 11.5602" stroke="white" stroke-width="1.73333" stroke-linecap="round" stroke-linejoin="round"/>
</svg>
