<svg width="35" height="35" viewBox="0 0 35 35" fill="none" xmlns="http://www.w3.org/2000/svg">
<path d="M32.0834 8.02083L27.7084 12.3958L32.0834 16.7708M13.8542 14.5833C14.5245 14.5833 15.1883 14.4513 15.8075 14.1948C16.4268 13.9383 16.9895 13.5623 17.4634 13.0884C17.9374 12.6144 18.3134 12.0517 18.5699 11.4324C18.8264 10.8132 18.9584 10.1495 18.9584 9.47917C18.9584 8.80888 18.8264 8.14515 18.5699 7.52589C18.3134 6.90662 17.9374 6.34394 17.4634 5.86998C16.9895 5.39601 16.4268 5.02004 15.8075 4.76353C15.1883 4.50702 14.5245 4.375 13.8542 4.375C12.5005 4.375 11.2023 4.91276 10.2451 5.86998C9.28784 6.82719 8.75008 8.12546 8.75008 9.47917C8.75008 10.8329 9.28784 12.1311 10.2451 13.0884C11.2023 14.0456 12.5005 14.5833 13.8542 14.5833ZM2.91675 29.75V30.625H24.7917V29.75C24.7917 26.4833 24.7917 24.85 24.1559 23.6017C23.5967 22.5041 22.7043 21.6118 21.6067 21.0525C20.3584 20.4167 18.7251 20.4167 15.4584 20.4167H12.2501C8.98341 20.4167 7.35008 20.4167 6.10175 21.0525C5.00418 21.6118 4.11183 22.5041 3.55258 23.6017C2.91675 24.85 2.91675 26.4833 2.91675 29.75Z" stroke="white" stroke-width="2.91667" stroke-linecap="round" stroke-linejoin="round"/>
</svg>
