<svg width="35" height="35" viewBox="0 0 35 35" fill="none" xmlns="http://www.w3.org/2000/svg">
<path d="M7.29167 30.625C6.48958 30.625 5.80319 30.3397 5.2325 29.769C4.66181 29.1983 4.37597 28.5114 4.375 27.7083V7.29167C4.375 6.48958 4.66083 5.80319 5.2325 5.2325C5.80417 4.66181 6.49056 4.37597 7.29167 4.375H16.0417C16.4549 4.375 16.8015 4.515 17.0815 4.795C17.3615 5.075 17.501 5.42111 17.5 5.83333C17.499 6.24556 17.359 6.59215 17.08 6.87312C16.801 7.1541 16.4549 7.29361 16.0417 7.29167H7.29167V27.7083H16.0417C16.4549 27.7083 16.8015 27.8483 17.0815 28.1283C17.3615 28.4083 17.501 28.7544 17.5 29.1667C17.499 29.5789 17.359 29.9255 17.08 30.2065C16.801 30.4874 16.4549 30.6269 16.0417 30.625H7.29167ZM25.0469 18.9583H14.5833C14.1701 18.9583 13.824 18.8183 13.545 18.5383C13.266 18.2583 13.126 17.9122 13.125 17.5C13.124 17.0878 13.264 16.7417 13.545 16.4617C13.826 16.1817 14.1721 16.0417 14.5833 16.0417H25.0469L22.3125 13.3073C22.0451 13.0399 21.9115 12.7118 21.9115 12.3229C21.9115 11.934 22.0451 11.5938 22.3125 11.3021C22.5799 11.0104 22.9201 10.8583 23.3333 10.8456C23.7465 10.833 24.099 10.973 24.3906 11.2656L29.6042 16.4792C29.8958 16.7708 30.0417 17.1111 30.0417 17.5C30.0417 17.8889 29.8958 18.2292 29.6042 18.5208L24.3906 23.7344C24.099 24.026 23.7528 24.166 23.3523 24.1544C22.9517 24.1427 22.6051 23.9906 22.3125 23.6979C22.0451 23.4062 21.9178 23.0601 21.9304 22.6596C21.9431 22.259 22.0826 21.9246 22.349 21.6563L25.0469 18.9583Z" fill="white"/>
</svg>
