<svg width="35" height="35" viewBox="0 0 35 35" fill="none" xmlns="http://www.w3.org/2000/svg">
<path d="M17.5 21.875C17.6069 21.875 17.7124 21.8809 17.8165 21.8925L23.52 15.5532C23.6496 15.4093 23.831 15.3228 24.0243 15.3127C24.2177 15.3025 24.4072 15.3696 24.551 15.4992C24.6949 15.6288 24.7814 15.8102 24.7916 16.0036C24.8017 16.1969 24.7346 16.3864 24.605 16.5302L19.2617 22.4657C19.6208 22.7378 19.9119 23.0895 20.1123 23.493C20.3127 23.8966 20.4169 24.3411 20.4167 24.7917H14.5833C14.5833 24.0182 14.8906 23.2763 15.4376 22.7293C15.9846 22.1823 16.7265 21.875 17.5 21.875ZM7.29167 22.6042C7.09828 22.6042 6.91281 22.681 6.77607 22.8178C6.63932 22.9545 6.5625 23.14 6.5625 23.3334C6.5625 23.5268 6.63932 23.7122 6.77607 23.849C6.91281 23.9857 7.09828 24.0625 7.29167 24.0625H9.47917C9.67255 24.0625 9.85802 23.9857 9.99477 23.849C10.1315 23.7122 10.2083 23.5268 10.2083 23.3334C10.2083 23.14 10.1315 22.9545 9.99477 22.8178C9.85802 22.681 9.67255 22.6042 9.47917 22.6042H7.29167ZM28.4375 23.3334C28.4375 23.14 28.3607 22.9545 28.2239 22.8178C28.0872 22.681 27.9017 22.6042 27.7083 22.6042H25.5208C25.3274 22.6042 25.142 22.681 25.0052 22.8178C24.8685 22.9545 24.7917 23.14 24.7917 23.3334C24.7917 23.5268 24.8685 23.7122 25.0052 23.849C25.142 23.9857 25.3274 24.0625 25.5208 24.0625H27.7083C27.9017 24.0625 28.0872 23.9857 28.2239 23.849C28.3607 23.7122 28.4375 23.5268 28.4375 23.3334ZM26.25 18.9584C26.6368 18.9584 27.0077 18.8047 27.2812 18.5312C27.5547 18.2577 27.7083 17.8868 27.7083 17.5C27.7083 17.1133 27.5547 16.7423 27.2812 16.4688C27.0077 16.1954 26.6368 16.0417 26.25 16.0417C25.8632 16.0417 25.4923 16.1954 25.2188 16.4688C24.9453 16.7423 24.7917 17.1133 24.7917 17.5C24.7917 17.8868 24.9453 18.2577 25.2188 18.5312C25.4923 18.8047 25.8632 18.9584 26.25 18.9584ZM10.2083 17.5C10.2083 17.8868 10.0547 18.2577 9.7812 18.5312C9.50771 18.8047 9.13677 18.9584 8.75 18.9584C8.36323 18.9584 7.99229 18.8047 7.7188 18.5312C7.44531 18.2577 7.29167 17.8868 7.29167 17.5C7.29167 17.1133 7.44531 16.7423 7.7188 16.4688C7.99229 16.1954 8.36323 16.0417 8.75 16.0417C9.13677 16.0417 9.50771 16.1954 9.7812 16.4688C10.0547 16.7423 10.2083 17.1133 10.2083 17.5ZM11.6667 13.8542C12.0534 13.8542 12.4244 13.7006 12.6979 13.4271C12.9714 13.1536 13.125 12.7826 13.125 12.3959C13.125 12.0091 12.9714 11.6382 12.6979 11.3647C12.4244 11.0912 12.0534 10.9375 11.6667 10.9375C11.2799 10.9375 10.909 11.0912 10.6355 11.3647C10.362 11.6382 10.2083 12.0091 10.2083 12.3959C10.2083 12.7826 10.362 13.1536 10.6355 13.4271C10.909 13.7006 11.2799 13.8542 11.6667 13.8542ZM24.7917 12.3959C24.7917 12.7826 24.638 13.1536 24.3645 13.4271C24.091 13.7006 23.7201 13.8542 23.3333 13.8542C22.9466 13.8542 22.5756 13.7006 22.3021 13.4271C22.0286 13.1536 21.875 12.7826 21.875 12.3959C21.875 12.0091 22.0286 11.6382 22.3021 11.3647C22.5756 11.0912 22.9466 10.9375 23.3333 10.9375C23.7201 10.9375 24.091 11.0912 24.3645 11.3647C24.638 11.6382 24.7917 12.0091 24.7917 12.3959ZM18.2292 8.75004C18.2292 8.55665 18.1523 8.37119 18.0156 8.23444C17.8789 8.0977 17.6934 8.02087 17.5 8.02087C17.3066 8.02087 17.1211 8.0977 16.9844 8.23444C16.8477 8.37119 16.7708 8.55665 16.7708 8.75004V10.9375C16.7708 11.1309 16.8477 11.3164 16.9844 11.4531C17.1211 11.5899 17.3066 11.6667 17.5 11.6667C17.6934 11.6667 17.8789 11.5899 18.0156 11.4531C18.1523 11.3164 18.2292 11.1309 18.2292 10.9375V8.75004Z" fill="white"/>
<path d="M17.5 5.10413C9.04313 5.10413 2.1875 11.9598 2.1875 20.4166C2.1875 22.5516 2.625 24.586 3.41542 26.4337L3.42125 26.4468C3.73042 27.1716 3.92583 27.6281 4.54417 28.2858C4.78479 28.5425 5.13042 28.8108 5.46583 29.031C5.80125 29.2512 6.18479 29.4656 6.51438 29.5852C7.36313 29.8958 8.09521 29.8958 9.24292 29.8958H25.7571C26.9048 29.8958 27.6383 29.8958 28.4856 29.5866C28.8152 29.4656 29.1973 29.2527 29.5327 29.0325C29.8681 28.8093 30.2152 28.5425 30.4558 28.2858C31.0742 27.6295 31.2696 27.1716 31.5788 26.4468L31.5846 26.4337C32.375 24.586 32.8125 22.5516 32.8125 20.4166C32.8125 11.9598 25.9569 5.10413 17.5 5.10413ZM3.64583 20.4166C3.64583 16.7423 5.10546 13.2184 7.70362 10.6203C10.3018 8.02209 13.8256 6.56246 17.5 6.56246C21.1744 6.56246 24.6982 8.02209 27.2964 10.6203C29.8945 13.2184 31.3542 16.7423 31.3542 20.4166C31.3556 22.2876 30.9781 24.1395 30.2444 25.8606C29.944 26.562 29.8302 26.8231 29.3927 27.2883C29.2615 27.4268 29.0194 27.6237 28.7306 27.8133C28.4979 27.9738 28.2485 28.1087 27.9869 28.2158C27.4035 28.4287 26.9252 28.4375 25.671 28.4375H9.32896C8.07479 28.4375 7.59792 28.4287 7.01458 28.2158C6.75347 28.1082 6.50421 27.9738 6.27083 27.8148C6.032 27.6627 5.80962 27.4863 5.60729 27.2883C5.16979 26.8216 5.05604 26.562 4.75563 25.8591C4.02209 24.1385 3.64457 22.2871 3.64583 20.4166Z" fill="white"/>
</svg>
