<svg width="35" height="35" viewBox="0 0 35 35" fill="none" xmlns="http://www.w3.org/2000/svg">
<path d="M30.625 17.5V16.0416C30.625 14.318 30.2855 12.6113 29.6259 11.0189C28.9663 9.42651 27.9995 7.97962 26.7808 6.76085C25.562 5.54208 24.1151 4.5753 22.5227 3.91571C20.9303 3.25611 19.2236 2.91663 17.5 2.91663C15.7764 2.91663 14.0697 3.25611 12.4773 3.91571C10.8849 4.5753 9.43799 5.54208 8.21922 6.76085C7.00045 7.97962 6.03367 9.42651 5.37408 11.0189C4.71449 12.6113 4.375 14.318 4.375 16.0416V17.5M30.625 17.5H24.7917V26.25H27.7083C29.3198 26.25 30.625 25.0439 30.625 23.5579V17.5ZM4.375 17.5H10.2083V26.25H7.29167M4.375 17.5V23.5579C4.375 25.0454 5.68021 26.25 7.29167 26.25M7.29167 26.25V26.9791C7.29167 28.1394 7.7526 29.2522 8.57307 30.0727C9.39355 30.8932 10.5063 31.3541 11.6667 31.3541H14.9479M14.9479 31.3541C14.9479 31.9579 15.4379 32.4479 16.0417 32.4479H18.9583C19.2484 32.4479 19.5266 32.3326 19.7317 32.1275C19.9368 31.9224 20.0521 31.6442 20.0521 31.3541C20.0521 31.064 19.9368 30.7858 19.7317 30.5807C19.5266 30.3756 19.2484 30.2604 18.9583 30.2604H16.0417C15.7516 30.2604 15.4734 30.3756 15.2683 30.5807C15.0632 30.7858 14.9479 31.064 14.9479 31.3541Z" stroke="white" stroke-width="2.66667"/>
</svg>
