<svg width="33" height="35" viewBox="0 0 33 35" fill="none" xmlns="http://www.w3.org/2000/svg">
<path d="M16.5 15.3125C15.0416 15.3125 13.643 14.7363 12.6118 13.7107C11.5806 12.6852 11.0012 11.2942 11.0012 9.84375C11.0012 8.39335 11.5806 7.00235 12.6118 5.97676C13.643 4.95117 15.0416 4.375 16.5 4.375C17.9583 4.375 19.3569 4.95117 20.3882 5.97676C21.4194 7.00235 21.9987 8.39335 21.9987 9.84375C21.9987 11.2942 21.4194 12.6852 20.3882 13.7107C19.3569 14.7363 17.9583 15.3125 16.5 15.3125ZM16.5 6.5625C14.6744 6.5625 13.2007 8.02813 13.2007 9.84375C13.2007 11.6594 14.6744 13.125 16.5 13.125C18.3255 13.125 19.7992 11.6594 19.7992 9.84375C19.7992 8.02813 18.3255 6.5625 16.5 6.5625Z" fill="white"/>
<path d="M29.6969 24.0625C29.081 24.0625 28.5971 23.5812 28.5971 22.9688C28.5971 22.3563 29.081 21.875 29.6969 21.875C30.3127 21.875 30.7966 21.3937 30.7966 20.7812C30.7966 19.3308 30.2173 17.9398 29.1861 16.9143C28.1549 15.8887 26.7562 15.3125 25.2979 15.3125H23.0984C22.4825 15.3125 21.9986 14.8313 21.9986 14.2188C21.9986 13.6062 22.4825 13.125 23.0984 13.125C24.924 13.125 26.3976 11.6594 26.3976 9.84375C26.3976 8.02813 24.924 6.5625 23.0984 6.5625C22.4825 6.5625 21.9986 6.08125 21.9986 5.46875C21.9986 4.85625 22.4825 4.375 23.0984 4.375C24.5567 4.375 25.9554 4.95117 26.9866 5.97676C28.0178 7.00235 28.5971 8.39335 28.5971 9.84375C28.5971 11.2 28.1132 12.425 27.2774 13.3875C30.5547 14.2625 32.9961 17.2375 32.9961 20.7812C32.9961 22.5969 31.5225 24.0625 29.6969 24.0625ZM3.30291 24.0625C1.47733 24.0625 0.00366211 22.5969 0.00366211 20.7812C0.00366211 17.2375 2.42311 14.2625 5.72235 13.3875C4.90854 12.425 4.40266 11.2 4.40266 9.84375C4.40266 8.39335 4.98199 7.00235 6.0132 5.97676C7.04442 4.95117 8.44304 4.375 9.9014 4.375C10.5173 4.375 11.0011 4.85625 11.0011 5.46875C11.0011 6.08125 10.5173 6.5625 9.9014 6.5625C8.07582 6.5625 6.60215 8.02813 6.60215 9.84375C6.60215 11.6594 8.07582 13.125 9.9014 13.125C10.5173 13.125 11.0011 13.6062 11.0011 14.2188C11.0011 14.8313 10.5173 15.3125 9.9014 15.3125H7.7019C6.24355 15.3125 4.84492 15.8887 3.8137 16.9143C2.78249 17.9398 2.20316 19.3308 2.20316 20.7812C2.20316 21.3937 2.68705 21.875 3.30291 21.875C3.91877 21.875 4.40266 22.3563 4.40266 22.9688C4.40266 23.5812 3.91877 24.0625 3.30291 24.0625ZM23.0984 30.625H9.9014C8.07582 30.625 6.60215 29.1594 6.60215 27.3438V25.1562C6.60215 20.9344 10.0554 17.5 14.3004 17.5H18.6994C22.9444 17.5 26.3976 20.9344 26.3976 25.1562V27.3438C26.3976 29.1594 24.924 30.625 23.0984 30.625ZM14.3004 19.6875C12.842 19.6875 11.4434 20.2637 10.4122 21.2893C9.38098 22.3148 8.80165 23.7058 8.80165 25.1562V27.3438C8.80165 27.9562 9.28554 28.4375 9.9014 28.4375H23.0984C23.7142 28.4375 24.1981 27.9562 24.1981 27.3438V25.1562C24.1981 23.7058 23.6188 22.3148 22.5876 21.2893C21.5564 20.2637 20.1577 19.6875 18.6994 19.6875H14.3004Z" fill="white"/>
</svg>
