<svg width="35" height="35" viewBox="0 0 35 35" fill="none" xmlns="http://www.w3.org/2000/svg">
<g clip-path="url(#clip0_189_62)">
<path d="M19.3228 4.01042H22.9687C23.5488 4.01042 24.1052 4.24088 24.5155 4.65112C24.9257 5.06136 25.1562 5.61776 25.1562 6.19792M19.0312 27.9125L13.6062 28.6854L14.3791 23.3333L28.3062 9.42083C28.9282 8.84123 29.7509 8.52569 30.601 8.54069C31.451 8.55569 32.2621 8.90006 32.8633 9.50124C33.4644 10.1024 33.8088 10.9135 33.8238 11.7635C33.8388 12.6136 33.5233 13.4363 32.9437 14.0583L19.0312 27.9125ZM8.02075 1.09375H18.2291C18.2291 1.09375 19.3228 1.09375 19.3228 2.1875V5.83333C19.3228 5.83333 19.3228 6.92708 18.2291 6.92708H8.02075C8.02075 6.92708 6.927 6.92708 6.927 5.83333V2.1875C6.927 2.1875 6.927 1.09375 8.02075 1.09375Z" stroke="white" stroke-width="2.1875" stroke-linecap="round" stroke-linejoin="round"/>
<path d="M25.1563 27.3437V31.7187C25.1563 32.2989 24.9258 32.8553 24.5155 33.2655C24.1053 33.6757 23.5489 33.9062 22.9688 33.9062H3.28125C2.70109 33.9062 2.14469 33.6757 1.73445 33.2655C1.32422 32.8553 1.09375 32.2989 1.09375 31.7187V6.19788C1.09375 5.61771 1.32422 5.06132 1.73445 4.65108C2.14469 4.24084 2.70109 4.01038 3.28125 4.01038H6.92708M7.65625 12.7604H17.8646M7.65625 19.3229H11.3021" stroke="white" stroke-width="2.1875" stroke-linecap="round" stroke-linejoin="round"/>
</g>
<defs>
<clipPath id="clip0_189_62">
<rect width="35" height="35" fill="white"/>
</clipPath>
</defs>
</svg>
