<svg width="35" height="35" viewBox="0 0 35 35" fill="none" xmlns="http://www.w3.org/2000/svg">
<path d="M23.3334 4.375C24.4493 4.37494 25.5231 4.80131 26.335 5.56687C27.147 6.33244 27.6357 7.37932 27.7011 8.49333L27.7084 8.75V23.3333H28.8022C29.7457 23.3333 30.523 24.0508 30.6163 24.9696L30.6251 25.1562V27.7083C30.6251 28.8243 30.1988 29.898 29.4332 30.71C28.6676 31.5219 27.6208 32.0106 26.5068 32.076L26.2501 32.0833H11.6667C10.5508 32.0834 9.47704 31.657 8.66512 30.8915C7.8532 30.1259 7.36451 29.079 7.29904 27.965L7.29175 27.7083V13.125H4.73966C4.28837 13.1252 3.85304 12.958 3.51792 12.6557C3.1828 12.3535 2.97171 11.9377 2.9255 11.4887L2.91675 11.3021V8.75C2.91669 7.63407 3.34306 6.56029 4.10862 5.74837C4.87418 4.93645 5.92107 4.44776 7.03508 4.38229L7.29175 4.375H23.3334ZM23.3334 7.29167H10.2084V27.7083C10.2084 28.0951 10.3621 28.466 10.6356 28.7395C10.909 29.013 11.28 29.1667 11.6667 29.1667C12.0535 29.1667 12.4245 29.013 12.6979 28.7395C12.9714 28.466 13.1251 28.0951 13.1251 27.7083V25.1562C13.1251 24.15 13.9417 23.3333 14.948 23.3333H24.7917V8.75C24.7917 8.36323 24.6381 7.99229 24.3646 7.7188C24.0911 7.44531 23.7202 7.29167 23.3334 7.29167ZM27.7084 26.25H16.0417V27.7083C16.0417 28.2188 15.9542 28.7102 15.7938 29.1667H26.2501C26.6369 29.1667 27.0078 29.013 27.2813 28.7395C27.5548 28.466 27.7084 28.0951 27.7084 27.7083V26.25ZM17.5001 17.5C17.8869 17.5 18.2578 17.6536 18.5313 17.9271C18.8048 18.2006 18.9584 18.5716 18.9584 18.9583C18.9584 19.3451 18.8048 19.716 18.5313 19.9895C18.2578 20.263 17.8869 20.4167 17.5001 20.4167H14.5834C14.1966 20.4167 13.8257 20.263 13.5522 19.9895C13.2787 19.716 13.1251 19.3451 13.1251 18.9583C13.1251 18.5716 13.2787 18.2006 13.5522 17.9271C13.8257 17.6536 14.1966 17.5 14.5834 17.5H17.5001ZM20.4167 11.6667C20.8035 11.6667 21.1745 11.8203 21.4479 12.0938C21.7214 12.3673 21.8751 12.7382 21.8751 13.125C21.8751 13.5118 21.7214 13.8827 21.4479 14.1562C21.1745 14.4297 20.8035 14.5833 20.4167 14.5833H14.5834C14.1966 14.5833 13.8257 14.4297 13.5522 14.1562C13.2787 13.8827 13.1251 13.5118 13.1251 13.125C13.1251 12.7382 13.2787 12.3673 13.5522 12.0938C13.8257 11.8203 14.1966 11.6667 14.5834 11.6667H20.4167ZM7.29175 7.29167C6.93455 7.29171 6.5898 7.42285 6.32287 7.66021C6.05595 7.89757 5.88541 8.22463 5.84362 8.57937L5.83341 8.75V10.2083H7.29175V7.29167Z" fill="white"/>
</svg>
