<svg width="30" height="30" viewBox="0 0 30 30" fill="none" xmlns="http://www.w3.org/2000/svg">
<path d="M5.10417 5.83333C5.10417 4.8664 5.48828 3.93907 6.17201 3.25534C6.85573 2.57161 7.78306 2.1875 8.75 2.1875C9.71694 2.1875 10.6443 2.57161 11.328 3.25534C12.0117 3.93907 12.3958 4.8664 12.3958 5.83333C12.3958 6.80027 12.0117 7.7276 11.328 8.41133C10.6443 9.09505 9.71694 9.47917 8.75 9.47917C7.78306 9.47917 6.85573 9.09505 6.17201 8.41133C5.48828 7.7276 5.10417 6.80027 5.10417 5.83333ZM8.75 0C7.2029 0 5.71917 0.614581 4.62521 1.70854C3.53125 2.80251 2.91667 4.28624 2.91667 5.83333C2.91667 7.38043 3.53125 8.86416 4.62521 9.95812C5.71917 11.0521 7.2029 11.6667 8.75 11.6667C10.2971 11.6667 11.7808 11.0521 12.8748 9.95812C13.9688 8.86416 14.5833 7.38043 14.5833 5.83333C14.5833 4.28624 13.9688 2.80251 12.8748 1.70854C11.7808 0.614581 10.2971 0 8.75 0ZM19.6875 7.29167C19.6875 6.71151 19.918 6.15511 20.3282 5.74487C20.7384 5.33463 21.2948 5.10417 21.875 5.10417C22.4552 5.10417 23.0116 5.33463 23.4218 5.74487C23.832 6.15511 24.0625 6.71151 24.0625 7.29167C24.0625 7.87183 23.832 8.42823 23.4218 8.83846C23.0116 9.2487 22.4552 9.47917 21.875 9.47917C21.2948 9.47917 20.7384 9.2487 20.3282 8.83846C19.918 8.42823 19.6875 7.87183 19.6875 7.29167ZM21.875 2.91667C20.7147 2.91667 19.6019 3.3776 18.7814 4.19807C17.9609 5.01855 17.5 6.13134 17.5 7.29167C17.5 8.45199 17.9609 9.56479 18.7814 10.3853C19.6019 11.2057 20.7147 11.6667 21.875 11.6667C23.0353 11.6667 24.1481 11.2057 24.9686 10.3853C25.7891 9.56479 26.25 8.45199 26.25 7.29167C26.25 6.13134 25.7891 5.01855 24.9686 4.19807C24.1481 3.3776 23.0353 2.91667 21.875 2.91667ZM3.28125 14.5833C2.41101 14.5833 1.57641 14.929 0.961056 15.5444C0.345702 16.1597 0 16.9943 0 17.8646V18.27C0.00152767 18.3714 0.00834239 18.4726 0.0204166 18.5733C0.141631 19.6583 0.5316 20.6959 1.155 21.5921C2.34792 23.2954 4.62583 24.7917 8.75 24.7917C12.8742 24.7917 15.1521 23.2969 16.345 21.5906C16.9684 20.6944 17.3584 19.6568 17.4796 18.5719C17.4899 18.4715 17.4967 18.3708 17.5 18.27V17.8646C17.5 16.9943 17.1543 16.1597 16.5389 15.5444C15.9236 14.929 15.089 14.5833 14.2188 14.5833H3.28125ZM2.1875 18.2394V17.8646C2.1875 17.5745 2.30273 17.2963 2.50785 17.0912C2.71297 16.8861 2.99117 16.7708 3.28125 16.7708H14.2188C14.5088 16.7708 14.787 16.8861 14.9921 17.0912C15.1973 17.2963 15.3125 17.5745 15.3125 17.8646V18.2394L15.3023 18.356C15.2184 19.0676 14.961 19.7477 14.5527 20.3365C13.8338 21.3646 12.2821 22.6042 8.75 22.6042C5.21792 22.6042 3.66625 21.3646 2.94583 20.3365C2.53787 19.7471 2.28097 19.0665 2.19771 18.3546L2.1875 18.2394ZM23.6133 16.0344L24.3075 14.2771C24.6604 13.3817 25.6492 12.9165 26.565 13.2154L27.1935 13.421C28.2494 13.7667 29.1273 14.5965 29.1623 15.7092C29.3081 20.2446 25.5515 26.7677 21.56 28.9144C20.5785 29.4423 19.4192 29.0938 18.5923 28.3442L18.1008 27.8994C17.7572 27.5883 17.5446 27.1582 17.5062 26.6963C17.4677 26.2344 17.6063 25.7751 17.8938 25.4115L19.0604 23.9385C19.4833 23.4033 20.179 23.1656 20.8396 23.326L22.7238 23.7825C24.3318 22.7179 25.1942 21.2212 25.3108 19.2923L23.9735 17.8865C23.7428 17.6444 23.5863 17.3413 23.5225 17.0131C23.4586 16.6849 23.4902 16.3452 23.6133 16.0344Z" fill="white"/>
</svg>
